<svg width="25" height="34" viewBox="0 0 25 34" fill="none" xmlns="http://www.w3.org/2000/svg">
<g filter="url(#filter0_d_12_274)">
<path d="M5.4675 1.26955C6.13365 0.603408 7.03713 0.229172 7.9792 0.229172H11.5313V7.33333H7.9792C7.03713 7.33333 6.13365 6.9591 5.4675 6.29295C4.80136 5.62681 4.42712 4.72332 4.42712 3.78125C4.42712 2.83918 4.80136 1.9357 5.4675 1.26955Z" fill="white"/>
<path d="M17.0209 7.33333H13.4688V0.229172H17.0209C17.4873 0.229172 17.9492 0.321049 18.3802 0.499558C18.8112 0.678067 19.2027 0.939711 19.5326 1.26955C19.8624 1.59939 20.1241 1.99097 20.3026 2.42193C20.4811 2.85289 20.573 3.31479 20.573 3.78125C20.573 4.24772 20.4811 4.70961 20.3026 5.14057C20.1241 5.57153 19.8624 5.96311 19.5326 6.29295C19.2027 6.62279 18.8112 6.88444 18.3802 7.06295C17.9492 7.24145 17.4873 7.33333 17.0209 7.33333Z" fill="white"/>
<path d="M17.0209 9.27084C16.5544 9.27084 16.0925 9.36272 15.6615 9.54122C15.2306 9.71973 14.839 9.98138 14.5092 10.3112C14.1793 10.6411 13.9177 11.0326 13.7392 11.4636C13.5607 11.8946 13.4688 12.3565 13.4688 12.8229C13.4688 13.2894 13.5607 13.7513 13.7392 14.1822C13.9177 14.6132 14.1793 15.0048 14.5092 15.3346C14.839 15.6645 15.2306 15.9261 15.6615 16.1046C16.0925 16.2831 16.5544 16.375 17.0209 16.375C17.4873 16.375 17.9492 16.2831 18.3802 16.1046C18.8112 15.9261 19.2027 15.6645 19.5326 15.3346C19.8624 15.0048 20.1241 14.6132 20.3026 14.1822C20.4811 13.7513 20.573 13.2894 20.573 12.8229C20.573 12.3565 20.4811 11.8946 20.3026 11.4636C20.1241 11.0326 19.8624 10.6411 19.5326 10.3112C19.2027 9.98138 18.8112 9.71973 18.3802 9.54122C17.9492 9.36272 17.4873 9.27084 17.0209 9.27084Z" fill="white"/>
<path d="M5.4675 19.3529C6.13365 18.6867 7.03713 18.3125 7.9792 18.3125H11.5313V21.8646C11.5313 22.8067 11.157 23.7101 10.4909 24.3763C9.82476 25.0424 8.92127 25.4167 7.9792 25.4167C7.03713 25.4167 6.13365 25.0424 5.4675 24.3763C4.80136 23.7101 4.42712 22.8067 4.42712 21.8646C4.42712 20.9225 4.80136 20.019 5.4675 19.3529Z" fill="white"/>
<path d="M7.9792 9.27084C7.03713 9.27084 6.13365 9.64507 5.4675 10.3112C4.80136 10.9774 4.42712 11.8808 4.42712 12.8229C4.42712 13.765 4.80136 14.6685 5.4675 15.3346C6.13365 16.0008 7.03713 16.375 7.9792 16.375H11.5313V9.27084H7.9792Z" fill="white"/>
</g>
<defs>
<filter id="filter0_d_12_274" x="0.427124" y="0.229172" width="24.1459" height="33.1875" filterUnits="userSpaceOnUse" color-interpolation-filters="sRGB">
<feFlood flood-opacity="0" result="BackgroundImageFix"/>
<feColorMatrix in="SourceAlpha" type="matrix" values="0 0 0 0 0 0 0 0 0 0 0 0 0 0 0 0 0 0 127 0" result="hardAlpha"/>
<feOffset dy="4"/>
<feGaussianBlur stdDeviation="2"/>
<feComposite in2="hardAlpha" operator="out"/>
<feColorMatrix type="matrix" values="0 0 0 0 0 0 0 0 0 0 0 0 0 0 0 0 0 0 0.25 0"/>
<feBlend mode="normal" in2="BackgroundImageFix" result="effect1_dropShadow_12_274"/>
<feBlend mode="normal" in="SourceGraphic" in2="effect1_dropShadow_12_274" result="shape"/>
</filter>
</defs>
</svg>
